<svg height="512pt" viewBox="-25 0 512 512" width="512pt" xmlns="http://www.w3.org/2000/svg"><path d="m415.820312 229.578125 28.667969-82.148437c14.722657-42.167969-7.617187-88.449219-49.789062-103.167969-42.167969-14.722657-88.449219 7.617187-103.160157 49.789062l-22.078124 63.277344c-18.8125-20.578125-45.632813-33.726563-75.472657-34.457031v-41.871094c0-44.660156-36.328125-81-81-81-44.660156 0-81 36.339844-81 81v139.960938l-31.988281-17.902344v308.941406h30v-177.570312h402.660156v177.570312h30v-309.230469zm-148.699218 1.671875-19.621094-11-15.738281-8.820312-36.089844 20.332031-1.683594-.941407-30-16.742187-4.777343-2.667969-28.28125 16.148438-7.210938 4.121094-7.207031-4.121094-.910157-.519532c.648438-31.460937 20.558594-58.257812 48.386719-69.070312 8.5-3.320312 17.742188-5.128906 27.390625-5.128906.871094 0 1.75.011718 2.609375.050781 27.261719.917969 50.910157 16.320313 63.5 38.71875 6.171875 10.960937 9.683594 23.589844 9.683594 37.03125 0 .871094-.011719 1.738281-.050781 2.609375zm78.730468-156.441406c12.269532-5.917969 26.109376-6.707032 38.96875-2.21875 12.859376 4.480468 23.210938 13.710937 29.128907 25.980468 5.921875 12.269532 6.710937 26.109376 2.222656 38.96875l-28.03125 80.332032-11.25-6.449219-36.820313 20.359375-36.160156-20.371094-7.53125 4.261719c-1.097656-8.960937-3.328125-17.59375-6.527344-25.722656l4.660157-13.367188 39.339843 13.726563 9.886719-28.324219-39.335937-13.726563 7.4375-21.347656v-.003906l39.347656 13.730469 9.882812-28.324219-39.039062-13.625v-.007812c4.96875-10.417969 13.269531-18.78125 23.820312-23.871094zm-232.863281-44.808594c28.121094 0 51 22.878906 51 51v45.441406c-39.949219 10.707032-70.636719 44.289063-77.128906 85.777344l-24.871094 13.722656v-68h41.667969v-30h-41.667969v-22.609375h41.667969v-30h-41.355469s0 0 0-.003906c2.828125-25.457031 24.488281-45.328125 50.6875-45.328125zm-82.988281 274.429688v-50.21875l21.269531 11.898437 36.75-20.269531 35.699219 20.390625 35.660156-20.371094 36.359375 20.289063 36.0625-20.308594 36.257813 20.332031 35.890625-20.3125 35.992187 20.269531 36.667969-20.277344 35.539063 20.386719 20.511718-11.738281v49.929688zm0 0"/></svg>